<svg xmlns="http://www.w3.org/2000/svg" version="1.0" width="676.000000pt" height="722.000000pt" viewBox="0 0 676.000000 722.000000" preserveAspectRatio="xMidYMid meet">

<g transform="translate(0.000000,722.000000) scale(0.100000,-0.100000)" fill="#ffffff" stroke="none">
<path d="M2293 6840 c-18 -11 -76 -54 -128 -95 -83 -67 -101 -76 -133 -75 -77 4 -88 0 -138 -45 -27 -24 -54 -44 -61 -45 -7 0 -28 -14 -48 -31 -28 -25 -35 -38 -35 -68 0 -49 20 -67 106 -91 38 -10 70 -24 72 -30 2 -6 14 -23 26 -37 19 -22 30 -26 69 -25 37 2 47 -1 47 -14 0 -8 7 -37 16 -64 14 -44 14 -52 1 -79 -12 -25 -13 -32 -2 -41 17 -14 51 6 59 35 11 41 5 64 -31 118 -40 59 -152 147 -240 189 -38 18 -49 29 -51 50 -3 22 2 30 20 37 13 5 39 22 58 37 27 23 44 29 84 30 28 1 67 9 86 19 42 21 131 105 124 117 -3 4 1 8 9 8 7 0 42 14 76 31 35 16 86 36 114 43 l50 13 -24 16 c-31 22 -86 20 -126 -3z" fill="#ffffff"/>
<path d="M2500 6761 c24 -35 53 -69 64 -77 11 -8 17 -14 13 -14 -4 0 6 -25 23 -56 29 -56 35 -94 21 -144 -7 -22 -9 -19 -20 25 -16 66 -46 122 -101 189 -74 89 -112 93 -225 21 -46 -29 -155 -137 -155 -154 0 -11 110 -60 165 -72 173 -40 237 -119 256 -319 19 -186 12 -170 74 -170 37 0 55 4 55 13 0 20 29 254 35 290 4 21 1 47 -8 69 -15 35 -14 36 10 47 20 9 24 16 18 34 -5 12 -8 38 -8 58 1 26 -5 38 -20 45 -13 6 -26 30 -38 70 -21 68 -70 148 -109 176 -14 10 -40 21 -59 24 l-35 7 44 -62z" fill="#ffffff"/>
<path d="M2110 6420 c0 -4 12 -34 27 -66 33 -72 159 -204 195 -204 13 1 41 13 63 28 33 23 41 34 43 65 5 53 -28 102 -81 121 -61 23 -247 65 -247 56z" fill="#ffffff"/>
<path d="M2774 6418 c-20 -9 -22 -18 -26 -213 -4 -186 -6 -205 -26 -232 -14 -20 -23 -52 -27 -99 -13 -149 -16 -166 -38 -199 -12 -19 -25 -35 -29 -35 -11 0 -9 44 6 130 8 41 12 77 10 79 -2 2 -23 -8 -48 -23 -40 -23 -46 -31 -51 -71 -4 -24 -10 -43 -14 -42 -8 3 -114 -69 -133 -90 -33 -38 -201 -366 -233 -455 -42 -118 -79 -287 -100 -453 -9 -71 -18 -139 -22 -150 -7 -27 -54 -134 -124 -287 -80 -173 -80 -185 9 -265 55 -49 77 -79 115 -153 26 -50 47 -97 47 -105 0 -7 14 -42 31 -76 25 -52 62 -95 193 -225 88 -88 210 -198 270 -244 215 -165 302 -285 356 -485 42 -157 134 -269 285 -347 134 -69 278 -128 312 -128 39 0 79 37 92 86 5 22 14 57 20 79 23 90 89 163 186 206 43 19 72 23 218 27 152 4 168 6 178 23 8 15 5 26 -11 49 -42 59 -69 135 -79 222 -6 48 -17 100 -25 117 -27 51 -95 100 -171 123 -57 17 -79 30 -116 69 -51 53 -71 60 -224 83 -75 12 -118 25 -175 53 -66 34 -81 47 -143 128 -72 94 -117 172 -117 202 0 27 -38 93 -80 139 -66 71 -65 67 -40 538 26 492 37 423 -103 634 -78 117 -106 141 -200 172 -98 32 -202 116 -233 187 -25 57 -11 143 33 212 2 2 22 -3 45 -12 31 -13 45 -14 55 -5 11 8 12 7 7 -6 -8 -21 19 -51 98 -113 36 -27 84 -81 127 -141 108 -152 171 -202 255 -202 41 0 157 -59 204 -103 18 -17 32 -41 32 -54 0 -12 -16 -52 -35 -89 -30 -56 -35 -75 -35 -132 1 -78 13 -137 41 -198 10 -24 22 -64 25 -88 6 -39 3 -48 -19 -70 -35 -35 -49 -33 -42 6 4 18 -7 99 -26 191 -36 183 -35 214 16 315 40 78 41 82 16 82 -11 0 -57 20 -104 45 -47 25 -109 50 -139 56 -31 7 -73 26 -100 46 l-47 34 9 -32 c11 -38 28 -65 92 -146 58 -73 91 -144 90 -193 0 -19 -8 -80 -17 -135 -20 -128 -30 -467 -17 -612 l10 -113 49 -62 c34 -44 53 -80 62 -118 17 -69 37 -102 128 -212 94 -113 130 -134 277 -158 178 -30 200 -38 248 -83 23 -22 80 -58 128 -80 46 -21 97 -48 112 -59 45 -31 79 -101 95 -191 33 -190 62 -249 196 -391 111 -118 192 -216 286 -344 29 -40 59 -71 65 -69 7 3 11 47 10 138 0 120 -3 141 -26 199 -46 115 -51 138 -43 208 15 138 1 247 -42 339 -30 63 -62 78 -399 183 -97 30 -108 37 -225 132 -223 180 -291 247 -317 314 -71 183 -110 226 -388 424 -53 38 -66 70 -40 105 14 19 17 18 81 -45 68 -66 77 -63 39 12 -20 39 -18 64 16 163 41 120 39 146 -14 203 -18 20 -21 38 -24 130 -4 99 -2 110 20 142 43 63 99 170 94 178 -3 5 -38 21 -78 37 -40 16 -102 51 -137 77 -35 26 -67 48 -70 48 -3 0 -33 4 -65 10 -64 10 -106 40 -106 74 0 12 -15 33 -34 48 -22 18 -49 60 -81 125 -54 113 -74 139 -131 163 -23 10 -51 32 -63 48 -20 29 -29 92 -13 92 15 0 50 75 82 177 l32 101 -25 97 c-20 79 -22 98 -11 102 9 3 14 20 14 44 0 21 4 60 9 86 24 124 24 125 -25 101z" fill="#ffffff"/>
<path d="M2219 6124 c-45 -115 -79 -219 -79 -240 0 -56 35 -91 129 -129 72 -30 96 -28 153 12 53 36 59 66 46 231 -5 75 -12 139 -14 142 -3 2 -33 -4 -68 -13 -64 -17 -110 -13 -142 14 -11 9 -16 5 -25 -17z" fill="#ffffff"/>
<path d="M2087 5969 c-26 -44 -36 -80 -57 -211 -6 -37 -13 -74 -16 -83 -5 -11 0 -15 19 -15 32 0 43 -15 61 -81 8 -30 19 -68 24 -85 8 -25 7 -35 -6 -48 -15 -14 -14 -18 8 -41 13 -14 27 -25 31 -25 4 0 35 51 70 113 34 61 70 126 80 144 l18 32 -84 51 c-46 28 -93 62 -104 76 -28 36 -35 85 -21 143 17 71 8 83 -23 30z" fill="#ffffff"/>
<path d="M1891 5609 c-19 -11 -61 -43 -94 -69 -34 -27 -107 -72 -164 -100 -56 -29 -112 -63 -123 -77 -34 -43 -22 -104 32 -159 l30 -32 -52 -100 c-56 -109 -57 -121 -14 -179 32 -43 46 -82 39 -110 -3 -13 -28 -48 -55 -78 -60 -66 -80 -103 -80 -147 0 -54 10 -62 56 -44 170 64 218 33 195 -126 -18 -130 -67 -213 -161 -273 -19 -12 -44 -32 -54 -44 -26 -29 -33 -109 -12 -152 19 -41 36 -127 36 -184 0 -39 -3 -44 -30 -54 -21 -7 -47 -7 -82 -1 -76 15 -76 15 -83 -37 -20 -170 -49 -283 -104 -412 -45 -106 -42 -128 24 -201 63 -71 95 -126 273 -473 l25 -48 -21 -45 c-30 -61 -19 -85 56 -123 80 -40 116 -73 142 -126 29 -60 70 -100 140 -135 95 -48 126 -107 97 -185 -67 -180 -72 -185 -180 -185 -35 0 -66 -3 -69 -6 -3 -3 0 -28 8 -57 7 -28 12 -52 10 -54 -1 -2 -24 32 -51 75 -27 42 -50 79 -51 81 -2 2 -15 -4 -29 -13 -41 -27 -34 -68 28 -160 60 -92 109 -134 160 -143 l37 -6 -25 44 c-13 24 -25 47 -25 51 0 13 185 -81 202 -102 9 -11 20 -42 23 -68 19 -152 38 -208 91 -271 26 -32 85 -67 135 -81 l26 -8 -5 157 c-5 171 7 268 36 289 10 8 29 11 47 8 100 -19 108 -19 100 -5 -7 11 -6 12 6 3 11 -9 42 2 146 51 76 37 136 71 142 83 19 35 16 47 -38 219 l-16 52 -55 -45 c-30 -25 -73 -62 -95 -83 -22 -21 -53 -45 -70 -53 -57 -30 -344 -65 -400 -49 -36 9 -36 9 105 41 291 65 310 70 373 119 85 64 102 102 103 221 0 130 -2 122 52 182 27 29 76 91 110 138 54 78 129 156 170 179 15 8 13 21 -18 113 -78 237 -124 350 -154 382 -17 17 -71 62 -121 101 -145 112 -263 214 -366 315 -145 143 -193 215 -250 372 -36 101 -79 162 -143 203 -100 64 -100 97 -8 318 114 269 144 374 161 566 10 102 9 105 -15 136 -21 29 -24 42 -24 126 0 64 -7 118 -20 167 -26 94 -25 136 5 200 14 30 25 72 25 93 0 36 -2 39 -27 39 -16 0 -43 -9 -62 -21z" fill="#ffffff"/>
<path d="M2011 5531 c-40 -76 -47 -128 -28 -226 9 -44 18 -117 21 -162 4 -45 11 -93 16 -105 5 -13 9 -20 9 -17 1 3 26 75 56 159 l54 153 -28 26 c-30 28 -36 48 -46 153 -4 37 -10 70 -15 73 -4 2 -22 -22 -39 -54z" fill="#ffffff"/>
<path d="M1640 5540 c-19 -11 -64 -29 -100 -40 -113 -36 -172 -83 -200 -156 -9 -22 -6 -34 15 -70 28 -48 32 -76 11 -93 -8 -7 -16 -43 -21 -89 -3 -42 -13 -105 -21 -140 -22 -97 -20 -111 21 -128 49 -20 78 -18 103 9 l22 23 -30 29 c-42 40 -39 72 15 172 50 92 55 121 24 149 -91 82 -49 208 83 244 20 6 47 16 60 23 36 19 98 68 98 78 0 15 -43 9 -80 -11z" fill="#ffffff"/>
<path d="M2566 5478 c-9 -12 -16 -38 -16 -58 0 -82 180 -207 267 -185 29 7 27 17 -23 122 -36 76 -44 84 -127 112 -29 10 -59 21 -68 25 -12 5 -22 0 -33 -16z" fill="#ffffff"/>
<path d="M1549 4486 c-31 -7 -75 -20 -98 -29 -23 -9 -57 -17 -76 -17 -41 0 -45 -11 -11 -30 17 -9 43 -11 83 -6 32 3 64 2 71 -2 10 -7 45 -114 39 -118 -29 -18 -44 -20 -73 -11 -26 8 -37 7 -50 -4 -19 -16 -72 -126 -99 -208 -15 -47 -16 -55 -2 -68 14 -14 18 -9 43 42 18 36 47 73 78 99 27 22 69 61 94 85 l44 43 -4 72 c-4 53 0 83 13 119 11 26 15 47 11 46 -4 -1 -32 -7 -63 -13z" fill="#ffffff"/>
<path d="M3815 3600 c-5 -8 9 -20 140 -120 39 -29 99 -81 135 -115 69 -66 99 -79 194 -89 59 -7 223 -71 313 -122 55 -32 89 -91 103 -179 6 -38 18 -91 26 -118 13 -40 14 -58 4 -119 -15 -87 -8 -142 26 -213 36 -77 48 -63 40 49 -3 50 -9 145 -12 211 -4 87 -10 130 -23 155 -10 19 -21 55 -25 80 -9 56 -47 113 -100 149 -80 55 -183 102 -232 107 -66 7 -126 37 -148 74 -13 23 -23 29 -34 25 -44 -18 -51 -15 -133 67 -46 46 -110 101 -142 122 -56 36 -121 54 -132 36z" fill="#ffffff"/>
<path d="M3925 2583 c-92 -20 -161 -77 -187 -153 -9 -25 -23 -66 -32 -91 -22 -61 -62 -112 -107 -138 -44 -25 -49 -45 -49 -180 l0 -96 56 -55 c55 -53 125 -151 153 -215 58 -128 85 -296 59 -362 -9 -21 -18 -59 -22 -85 l-7 -47 38 -10 c21 -6 80 -11 131 -11 57 0 106 -5 127 -14 58 -25 195 -231 195 -295 0 -14 9 -54 20 -89 22 -70 15 -102 -20 -102 -16 0 -20 7 -21 38 -1 71 -21 136 -68 230 -76 149 -111 172 -261 172 l-101 0 3 -32 3 -33 75 -8 c96 -10 169 -45 209 -99 37 -51 44 -96 33 -223 -5 -55 -6 -102 -3 -105 3 -3 7 -28 7 -56 2 -66 24 -107 82 -149 73 -52 166 -78 270 -73 53 2 101 10 122 20 78 37 99 34 130 -17 42 -69 96 -106 173 -120 23 -4 47 1 84 20 29 14 59 25 67 25 17 0 56 46 56 66 0 22 -48 17 -73 -7 -44 -43 -81 -59 -134 -59 -67 0 -105 31 -145 119 -24 54 -69 111 -88 111 -6 0 -48 -30 -101 -71 -53 -41 -100 -52 -187 -44 -69 6 -80 10 -107 39 -19 20 -36 53 -44 87 -7 30 -17 59 -21 64 -4 6 -10 20 -13 33 -4 19 -1 22 23 22 41 0 60 -32 60 -100 0 -30 4 -60 8 -67 12 -19 54 -31 131 -39 l71 -7 63 65 c111 114 173 103 243 -41 57 -116 96 -134 185 -87 25 14 73 30 108 37 51 11 69 20 96 50 34 37 56 93 51 126 -3 16 -14 18 -102 15 -54 -1 -123 -5 -152 -8 -48 -5 -53 -4 -50 13 4 21 38 30 128 32 142 3 189 34 210 138 18 89 17 89 83 153 66 64 66 70 5 89 -46 15 -84 58 -100 114 -6 23 -20 55 -31 71 -18 25 -24 28 -61 23 -33 -5 -51 -16 -94 -62 -79 -84 -120 -98 -272 -100 -108 -1 -130 -4 -165 -23 -48 -26 -155 -32 -155 -8 0 18 9 20 250 52 201 26 253 42 303 88 25 23 47 64 47 87 0 5 -16 9 -35 9 -52 0 -91 24 -121 76 -46 79 -230 187 -319 187 -105 0 -202 -74 -235 -178 -7 -22 -24 -62 -38 -90 l-26 -50 -7 45 c-9 58 11 105 80 188 36 44 74 75 126 105 41 23 75 44 74 47 0 7 -188 116 -241 140 -25 11 -74 23 -108 27 -64 6 -64 15 0 33 70 20 163 -32 594 -330 248 -171 244 -169 308 -186 44 -11 48 -11 44 4 -2 9 -14 55 -26 102 -21 86 -66 189 -98 225 -9 11 -53 52 -97 90 -94 84 -177 185 -246 303 -28 48 -53 89 -55 91 -6 7 -60 -25 -122 -72 -40 -30 -56 -37 -64 -29 -14 14 -4 24 85 90 31 23 57 48 57 55 0 18 -68 155 -80 162 -6 4 -36 -7 -68 -23 -62 -33 -133 -57 -150 -51 -6 2 21 31 60 64 69 59 70 61 65 100 -4 31 -14 47 -43 70 -21 17 -61 53 -89 81 -27 28 -61 57 -75 65 -43 22 -277 45 -335 32z" fill="#ffffff"/>
<path d="M2918 2433 c-30 -5 -75 -52 -84 -89 -7 -28 10 -54 37 -54 41 0 112 -45 205 -131 53 -49 118 -101 143 -115 61 -35 89 -70 96 -120 10 -63 16 -68 61 -54 80 26 111 48 128 90 19 49 20 90 2 150 -13 43 -17 47 -112 98 -180 97 -441 232 -445 231 -2 -1 -16 -4 -31 -6z" fill="#ffffff"/>
<path d="M1360 2380 c1 -41 11 -56 65 -91 61 -40 110 -91 146 -150 40 -67 84 -114 118 -129 34 -14 63 -60 51 -80 -20 -31 -11 -58 21 -69 40 -14 39 -14 39 7 0 10 12 22 30 29 24 9 30 17 30 41 0 42 -33 78 -104 113 -82 42 -104 64 -122 125 -17 61 -38 81 -124 124 -36 18 -84 50 -107 73 l-43 41 0 -34z" fill="#ffffff"/>
<path d="M4794 2175 c-15 -38 15 -89 83 -140 64 -48 80 -70 134 -185 5 -11 21 -15 56 -14 l48 1 55 -73 c29 -41 55 -74 55 -74 1 0 -4 23 -11 52 -8 29 -14 60 -14 69 0 9 -16 26 -35 38 -19 11 -43 36 -52 56 -13 27 -23 35 -44 35 -19 0 -30 6 -34 20 -11 33 -55 80 -96 101 -25 12 -39 26 -39 39 0 21 -23 46 -69 73 -29 17 -32 17 -37 2z" fill="#ffffff"/>
<path d="M2668 2155 c-45 -30 -78 -83 -78 -123 0 -30 57 -162 70 -162 3 0 23 18 44 40 29 31 45 40 71 40 67 0 61 104 -12 195 -33 42 -47 43 -95 10z" fill="#ffffff"/>
<path d="M4800 2005 c0 -7 35 -71 66 -121 10 -16 79 -88 151 -158 73 -71 141 -142 152 -160 10 -17 28 -73 40 -123 26 -115 40 -150 80 -195 19 -22 34 -53 40 -81 15 -80 51 -113 178 -163 93 -37 121 -41 129 -21 8 23 -25 86 -54 101 -31 16 -54 58 -105 191 -78 203 -101 239 -189 289 -86 49 -91 53 -127 117 -39 70 -56 85 -105 94 -44 7 -54 17 -148 145 -42 56 -71 86 -85 88 -13 2 -23 1 -23 -3z" fill="#ffffff"/>
<path d="M5361 1590 c55 -28 56 -30 72 -93 17 -69 84 -218 111 -244 3 -3 6 55 6 130 l0 137 -40 6 -40 7 36 43 35 44 -118 0 -118 -1 56 -29z" fill="#ffffff"/>
<path d="M2693 1548 c-61 -53 -137 -88 -190 -88 -36 0 -48 -6 -82 -40 -43 -44 -58 -47 -119 -26 -46 16 -52 13 -71 -43 -17 -51 -13 -130 10 -234 21 -97 21 -141 -1 -219 -11 -37 -11 -51 -2 -60 12 -12 33 8 95 92 18 25 49 53 69 63 57 28 90 9 183 -108 l78 -97 15 28 c32 63 105 154 138 175 62 38 84 69 84 117 0 28 7 53 21 72 37 49 23 95 -78 262 -48 81 -91 148 -95 148 -4 0 -28 -19 -55 -42z" fill="#ffffff"/>
<path d="M1810 1377 c0 -19 11 -69 25 -111 14 -42 25 -83 25 -92 0 -29 29 -71 69 -99 23 -15 43 -26 45 -24 6 6 -99 328 -110 339 -5 4 -19 11 -31 15 -21 6 -23 3 -23 -28z" fill="#ffffff"/>
<path d="M2001 993 c8 -10 24 -29 36 -43 29 -31 53 -82 53 -108 0 -19 3 -20 30 -10 30 10 30 11 24 62 -4 28 -9 54 -13 57 -7 6 -129 59 -138 59 -3 0 1 -8 8 -17z" fill="#ffffff"/>
<path d="M5439 888 c-7 -13 -25 -39 -42 -57 -16 -19 -38 -53 -48 -75 -20 -47 -36 -146 -23 -146 5 0 43 21 84 45 89 54 119 56 168 14 l35 -31 231 5 c127 3 252 10 277 16 42 11 48 17 63 54 30 80 14 103 -47 67 l-36 -21 -233 62 c-375 100 -409 105 -429 67z" fill="#ffffff"/>
<path d="M5428 620 c-33 -27 -99 -125 -172 -252 l-26 -47 37 3 c21 2 43 4 48 5 6 0 10 22 11 49 1 79 50 149 120 172 22 7 61 10 95 7 68 -6 75 4 32 45 -61 56 -93 60 -145 18z" fill="#ffffff"/>
</g>
</svg>