<svg xmlns="http://www.w3.org/2000/svg" xmlns:xlink="http://www.w3.org/1999/xlink" version="1.1" id="Layer_1" x="0px" y="0px" width="100%" viewBox="-3 -3 694 726" enable-background="new 0 0 688 720" xml:space="preserve"><g id="deeditor_bgCarrier" stroke-width="0">
    <rect id="dee_c_e" x="-3" y="-3" width="694" height="726" rx="0" fill="#245552" strokewidth="0"/>
  </g>
<path fill="#ffffff" opacity="1.000000" stroke="none" d=" M436.071259,457.698364   C433.968903,464.098480 429.158051,465.658630 423.504639,466.277008   C413.402069,467.381958 404.494385,463.806976 395.748688,459.553833   C386.313934,454.965607 376.954010,450.223633 367.538727,445.594971   C365.755127,444.718170 363.917480,443.865509 362.010864,443.346832   C359.678864,442.712494 357.624481,443.429352 356.678101,445.833832   C355.800293,448.064117 356.829468,449.855927 358.769897,450.869659   C364.079926,453.643707 369.455292,456.295532 374.843292,458.916748   C383.680359,463.215851 392.554535,467.438660 401.391846,471.737274   C402.253540,472.156433 402.966766,472.880676 403.700378,473.427124   C400.058075,482.908936 389.475220,490.121887 378.237946,489.620087   C363.063965,488.942535 348.583832,484.212921 334.075775,481.144012   C333.301056,478.599457 334.995483,477.604004 335.878265,476.308197   C347.560333,459.159698 339.635315,438.649719 319.247040,434.230499   C314.197296,433.135925 312.649872,431.245728 312.560181,426.124268   C312.353943,414.351379 302.911438,403.893158 290.873444,401.307373   C287.337433,400.547852 285.463531,399.704529 285.260986,395.119629   C284.655487,381.414734 277.429443,372.328827 265.516327,368.572205   C255.836395,365.519775 247.388733,368.146851 241.049530,376.123016   C239.417786,378.176147 238.314957,380.683228 235.764542,382.419189   C233.526291,380.789734 232.635101,378.196075 231.308762,376.025055   C224.002960,364.066650 205.294830,358.805389 194.119812,369.549164   C192.130280,371.461914 190.489594,371.324310 188.735626,369.125031   C183.749954,362.873505 178.763412,356.615967 173.551147,350.555206   C171.354538,348.001038 172.498306,346.098328 173.767944,343.847382   C187.925781,318.746582 202.048325,293.625916 216.180283,268.510559   C220.509384,260.816864 224.832458,253.119797 229.171906,245.431961   C230.062515,243.854141 230.792511,242.138138 232.992050,240.732880   C246.711243,251.684982 263.681854,253.635574 280.310822,255.938446   C280.859558,258.828705 279.004120,260.151459 277.954498,261.708282   C271.158081,271.788696 264.017853,281.634674 257.958832,292.206757   C254.912827,297.521576 253.360229,303.281250 252.508194,309.211365   C251.252731,317.949219 258.167999,324.649261 268.607941,324.604584   C284.439606,324.536896 298.162384,318.744110 309.955200,308.316223   C313.824890,304.894409 317.350403,301.116913 320.575317,297.057953   C323.702393,293.122162 327.238617,289.597534 331.705109,287.152527   C339.732971,282.757965 347.140320,281.946136 356.128235,286.528625   C400.739624,309.273865 441.593964,337.567902 480.651459,368.655823   C485.734436,372.701599 490.941559,376.600494 495.888458,380.805908   C502.793060,386.675507 504.482086,394.998230 500.560822,402.354065   C496.648956,409.692383 488.120544,413.079285 479.531494,410.708038   C476.448395,409.856812 473.681030,408.344116 470.963104,406.702271   C450.430084,394.298889 429.889954,381.907257 409.344482,369.524536   C407.643646,368.499420 406.030273,367.155640 403.923218,367.143951   C401.978302,367.133148 399.598877,366.671692 398.660309,368.961456   C397.776215,371.118286 399.125946,372.874481 400.858521,374.056946   C404.846191,376.778442 408.847168,379.495392 412.979492,381.987457   C429.383667,391.880432 445.826508,401.709442 462.282928,411.515289   C471.618774,417.078247 471.732605,430.798676 462.203033,436.283203   C454.537872,440.694702 446.632568,441.488281 438.536438,436.705963   C421.899963,426.878906 405.179352,417.191040 388.376434,407.651855   C385.364838,405.942169 381.260132,401.763153 378.458984,406.509308   C375.862183,410.909119 380.904755,413.004791 384.043121,414.861877   C399.381256,423.938141 414.836334,432.816711 430.187653,441.870941   C438.967010,447.049011 438.981628,447.316437 436.071259,457.698364  z"/>
<path fill="#ffffff" opacity="1.000000" stroke="none" d=" M445.754761,243.164978   C453.936798,244.382294 461.508667,243.603714 468.750885,240.702576   C471.911285,239.436539 473.708984,239.671967 475.529236,242.935471   C494.103912,276.238129 512.817932,309.463226 531.565308,342.669189   C533.072266,345.338409 532.835938,347.014587 530.361206,348.989349   C522.423889,355.323059 514.722839,361.951813 506.839417,368.354340   C501.334930,372.824768 499.873322,372.774658 494.298492,368.225342   C464.451508,343.868835 433.269104,321.388184 400.347656,301.356781   C387.256012,293.390991 373.433716,286.654236 360.381714,278.695801   C347.501801,270.842255 336.332031,273.993439 324.929504,280.873657   C320.449066,283.577148 316.960236,287.367371 313.842224,291.550201   C304.855621,303.605682 293.389984,311.851868 278.364868,314.792725   C273.785675,315.689026 269.427917,314.860352 264.989594,314.230591   C263.487061,314.017395 262.438507,313.341431 262.518890,311.683105   C262.758240,306.744690 262.441376,301.879913 265.424500,297.275055   C275.749603,281.336792 286.603058,265.769257 297.339874,250.113464   C302.296051,242.886688 308.829895,239.408142 317.013000,237.913712   C340.815613,233.566818 364.763367,231.103012 388.974609,232.772552   C402.777222,233.724350 416.294891,236.467133 429.668823,240.021103   C434.793610,241.382935 440.095001,242.080231 445.754761,243.164978  z"/>
<path fill="#ffffff" opacity="1.000000" stroke="none" d=" M515.897339,202.180176   C539.283264,243.696472 562.499207,284.887268 585.673340,326.101471   C589.697083,333.257507 589.100098,335.039490 582.053711,339.256866   C574.340149,343.873535 566.619324,348.482422 559.007385,353.263092   C551.012085,358.284637 550.153503,358.191254 545.624695,350.134796   C523.679138,311.094788 501.755280,272.042480 479.827545,232.992432   C478.116180,229.944839 476.403870,226.897125 474.745789,223.820465   C472.842163,220.288071 473.600922,217.341965 477.002838,215.253891   C486.935669,209.157135 496.900024,203.111542 506.872192,197.079269   C512.480957,193.686478 513.487976,198.930817 515.897339,202.180176  z"/>
<path fill="#ffffff" opacity="1.000000" stroke="none" d=" M222.172455,240.108368   C201.486603,277.029175 180.969315,313.623444 160.451492,350.217407   C156.155746,357.878967 154.897171,358.148132 147.334152,353.476868   C139.543488,348.664886 131.700958,343.936218 123.852249,339.219116   C116.868088,335.021637 116.261353,333.248932 120.315384,326.017487   C130.818192,307.282990 141.459274,288.626068 152.006226,269.916229   C164.842392,247.145401 177.640396,224.353058 190.451263,201.567993   C194.304245,194.715149 195.022888,194.544922 201.526184,198.511597   C209.911972,203.626556 218.333191,208.683594 226.752884,213.742706   C233.027817,217.513077 233.635712,219.829559 229.968826,226.309570   C227.427277,230.800919 224.883591,235.291031 222.172455,240.108368  z"/>
<path fill="#ffffff" opacity="1.000000" stroke="none" d=" M259.998199,421.965698   C254.644516,429.219025 249.644424,436.296204 244.332367,443.130981   C238.300751,450.891693 231.942276,452.150513 224.367722,447.498474   C216.542816,442.692657 212.902298,433.174347 216.477661,425.642120   C220.356979,417.469574 226.632004,410.845154 231.731583,403.456390   C236.458191,396.608032 241.498520,389.969635 246.559555,383.360413   C252.828903,375.173248 260.375244,373.842529 268.255310,379.320038   C276.330383,384.933105 278.811859,395.215515 273.619781,403.021057   C269.380554,409.394104 264.699280,415.473145 259.998199,421.965698  z"/>
<path fill="#ffffff" opacity="1.000000" stroke="none" d=" M304.175354,428.793518   C303.762329,432.458557 302.234650,435.190521 300.355316,437.785309   C293.424011,447.355682 286.596771,457.002716 279.572540,466.504181   C273.291138,475.000916 266.158417,476.190033 257.561462,470.456268   C249.471481,465.060638 247.176025,455.368683 252.438126,447.303802   C259.900574,435.866577 268.130005,424.963348 276.535309,414.207581   C281.322937,408.081177 291.373047,408.145935 297.925720,414.169556   C302.053955,417.964539 304.022125,422.795135 304.175354,428.793518  z"/>
<path fill="#ffffff" opacity="1.000000" stroke="none" d=" M306.621338,445.517090   C313.500397,441.140076 321.319977,441.913147 326.880890,447.259918   C333.083557,453.223724 334.737457,461.945679 330.344177,468.510376   C325.728119,475.407928 320.712738,482.049042 315.665375,488.644196   C310.390869,495.536102 303.033295,496.562683 295.371582,491.776520   C288.052826,487.204498 284.280426,477.274689 288.189484,470.659088   C293.418304,461.810028 299.234741,453.281250 306.621338,445.517090  z"/>
<path fill="#ffffff" opacity="1.000000" stroke="none" d=" M220.337799,376.580627   C228.548065,385.244446 229.164566,391.881348 222.704300,401.302490   C220.359436,404.722107 217.810791,408.009949 215.227737,411.256561   C210.135910,417.656555 203.941223,418.812225 196.706573,414.924194   C188.879608,410.717834 182.964279,398.993835 189.897064,389.360626   C192.128464,386.260101 194.273209,383.093842 196.590622,380.059296   C203.756714,370.675659 210.361511,369.654175 220.337799,376.580627  z"/>
</svg>