<svg xmlns="http://www.w3.org/2000/svg" xmlns:xlink="http://www.w3.org/1999/xlink" version="1.1" id="Layer_1" x="0px" y="0px" width="100%" viewBox="0 0 528 544" enable-background="new 0 0 528 544" xml:space="preserve">
<path fill="#245552" opacity="1.000000" stroke="none" d=" M421.218018,495.362305   C423.545563,493.948639 425.388428,492.579437 426.132233,490.253021   C425.889984,488.946411 424.877686,488.647705 423.923462,488.421082   C419.356384,487.336426 416.891113,484.340454 415.791504,479.907715   C415.117249,477.189606 414.565979,473.889526 411.456055,473.170135   C408.148132,472.404938 405.628204,474.230133 403.594910,477.140198   C399.475037,483.036530 393.606445,485.561310 386.368622,485.366486   C380.337708,485.204132 374.350189,484.286011 368.720795,488.521149   C365.167419,491.194489 360.159790,488.841766 356.796509,483.831268   C366.074127,489.431671 373.776337,480.362549 382.702789,481.771515   C387.710632,482.561951 392.580383,481.325714 397.182343,478.951996   C400.411102,477.286560 402.411102,474.994171 402.945496,470.982849   C400.417999,469.535278 397.001923,471.136139 394.630829,468.739166   C392.561890,466.647675 391.584473,463.995667 390.061737,461.632355   C389.179779,460.263519 387.593506,460.035950 386.287628,459.339600   C383.503693,457.855255 380.575439,456.541748 378.051178,454.688507   C369.441895,448.367798 358.157928,451.304352 353.664246,460.987091   C351.736877,465.140015 350.455811,469.660187 347.233582,473.925049   C342.880768,466.085419 350.594635,462.254517 351.928741,456.678864   C353.676453,449.374512 362.755859,451.691254 366.562469,446.067505   C356.152802,441.249969 348.224335,431.002228 334.661560,435.303406   C337.343597,431.592133 341.315155,430.364166 345.697418,431.140106   C353.051056,432.442230 358.428772,437.504639 364.614258,440.986877   C373.727264,446.117249 381.106293,453.947418 390.869507,458.128876   C392.124786,458.666534 392.773926,459.873199 393.624878,460.906555   C397.813232,465.992950 403.369873,468.532684 410.858063,469.710724   C406.721710,459.120605 406.558075,448.265442 396.512787,440.863129   C387.173981,433.981415 379.940918,424.511902 374.718903,413.850830   C374.068970,412.524017 373.305298,411.252930 372.486694,409.759674   C367.041138,411.072021 364.097412,416.767029 357.962341,417.753937   C359.127411,413.291321 362.996124,412.426910 365.184235,409.985229   C366.642731,408.357727 369.838257,407.691010 369.015137,404.752228   C368.032959,401.245422 366.813110,397.380737 364.090668,395.124054   C361.859558,393.274689 359.205383,395.762482 357.169800,397.445526   C353.543945,400.443420 349.631500,401.884308 343.710022,399.900482   C347.083893,398.451355 349.471558,397.571106 351.726776,396.429321   C357.985718,393.260529 358.601685,386.915955 352.811188,382.976776   C349.865021,380.972565 347.261108,378.786438 345.092712,376.002167   C343.290009,373.687439 341.052460,372.283508 337.985565,371.912537   C331.880798,371.174194 325.823212,370.045044 319.631500,370.303497   C311.978577,370.622986 305.626648,375.092651 303.599915,382.313690   C301.561920,389.574860 298.891571,396.184326 291.744415,399.931549   C290.076141,400.806244 290.300018,402.336212 290.698822,403.877625   C291.717804,407.816101 291.745605,411.822083 290.765961,415.725159   C290.150421,418.177612 291.282684,419.347626 292.924042,420.736969   C305.305664,431.217621 309.944763,445.266541 311.211090,460.839203   C311.388062,463.015320 310.451874,464.635498 308.950134,466.134979   C306.952484,468.129608 306.789398,470.713104 307.793610,473.107239   C308.786743,475.474976 311.257446,474.472626 313.143616,474.672180   C314.132782,474.776855 315.141876,474.681427 316.141418,474.701874   C322.791260,474.837860 329.721924,473.186615 334.392517,480.584717   C338.006165,486.308746 343.155487,491.015167 343.527344,498.476868   C343.654755,501.033142 345.288239,503.478912 345.891693,506.055267   C346.788055,509.882019 345.281311,511.991058 341.225891,512.004761   C341.743256,499.497070 336.078491,489.808441 328.701416,480.841858   C327.863892,479.823944 326.454468,479.217590 325.070435,479.551422   C320.049011,480.762543 315.220612,478.762848 310.252441,478.732635   C305.525024,478.703918 302.922882,474.701050 303.948212,469.971497   C304.651245,466.728729 306.476013,463.558136 306.463501,460.360474   C306.405334,445.494690 300.575317,433.007629 289.752686,422.847504   C287.540924,420.771118 286.144135,422.700104 284.735504,424.041138   C281.283966,427.327179 277.683502,428.871765 273.104156,425.992310   C271.128967,424.750305 269.841217,423.518890 269.539276,421.040894   C268.965454,416.331543 266.655518,412.923523 261.522461,412.225494   C259.509857,411.951813 258.206909,410.893402 257.594818,408.905945   C255.901016,403.406006 251.704819,400.685974 246.530960,399.077911   C240.445999,397.186737 238.005981,399.088379 238.449554,405.374512   C238.517288,406.334229 239.104202,407.319916 238.145462,408.527954   C235.623703,408.457794 234.966888,406.237122 234.053345,404.453674   C231.131271,398.749115 229.875244,398.495911 224.811066,402.541656   C222.608353,404.301422 220.754501,406.304779 219.459747,409.532959   C217.990967,405.687256 218.997803,403.261383 221.363510,401.015442   C227.066696,395.600983 232.286743,389.787598 235.443237,382.438110   C236.454987,380.082367 238.516754,378.971039 240.627045,377.992645   C244.056442,376.402649 245.195023,374.358185 243.573395,370.519043   C240.468903,363.169250 237.801834,355.633179 235.011200,348.152802   C233.075134,342.963104 229.978043,338.794647 224.951904,336.239258   C213.848679,330.594177 206.576096,320.495117 197.380798,312.634155   C186.431625,303.273865 179.260941,291.642059 174.804535,278.113739   C173.508530,274.179443 170.977707,271.346649 167.196487,269.296173   C161.390991,266.147949 159.849670,261.740265 162.069489,255.438034   C164.335068,249.005859 166.447083,242.483597 169.931366,236.556534   C175.970398,226.283630 176.650711,214.783737 177.607620,203.346130   C177.914963,199.672684 179.229263,195.967697 175.441864,192.860977   C173.811310,191.523453 174.501907,188.734940 175.070343,186.640137   C176.352676,181.914337 175.914047,177.408783 173.728394,173.054596   C171.245819,168.108902 170.788498,163.445450 174.249100,158.501648   C176.071075,155.898788 177.272659,152.567856 176.229172,148.821640   C172.533722,147.928207 169.730408,149.662506 167.388138,152.019745   C161.248932,158.198135 155.008896,163.932510 145.899612,165.584396   C141.273346,166.423325 138.598618,173.484741 141.929413,176.398895   C148.038010,181.743317 145.177475,186.314880 142.118027,191.396301   C138.101227,198.067810 138.062759,198.686966 143.313446,204.376511   C146.324768,207.639526 146.260361,210.404846 143.420471,213.511398   C141.512360,215.598694 139.617599,217.706223 137.847290,219.909500   C135.487610,222.846222 133.973846,226.043686 135.581375,230.421158   C139.041275,229.528915 142.324997,228.480637 145.687592,227.858902   C151.769119,226.734482 154.135468,229.051651 153.462967,235.180389   C153.082718,238.645828 152.733124,242.116837 152.244812,245.567673   C151.542694,250.529480 148.488190,253.962906 144.656677,256.853424   C142.400208,258.555725 139.940445,260.060699 137.962051,262.043488   C134.539902,265.473297 134.493103,269.977692 137.406738,274.109924   C140.521164,278.526886 140.282333,283.598358 139.742752,288.532410   C139.472168,291.006683 137.546158,292.595886 134.607376,291.882050   C132.830200,291.450378 130.997009,291.229523 129.243408,290.724854   C126.314987,289.882111 125.484512,291.092560 125.209229,293.904266   C124.118774,305.041962 121.726959,315.843628 116.449615,325.869019   C113.902885,330.707062 114.790123,334.435791 119.319405,337.469879   C123.300980,340.137085 125.492348,343.639923 126.617119,348.290344   C128.642380,356.663818 132.997101,363.973053 138.495056,370.507080   C140.830673,373.282837 141.904541,375.528870 139.508484,378.817902   C137.210327,381.972565 138.132858,384.836487 141.423050,386.806915   C143.267609,387.911530 145.212631,388.880737 147.194656,389.715637   C149.899475,390.854919 152.520676,392.253296 153.253479,395.228546   C154.774460,401.403870 159.163040,404.433594 164.503677,406.979279   C172.313843,410.702179 173.880112,415.972748 169.953827,423.601349   C169.499756,424.483582 168.823318,425.309204 168.602402,426.244354   C167.014648,432.965332 165.647598,434.130951 158.854004,434.301208   C152.894028,434.450531 152.237198,435.495667 154.554642,441.079559   C156.749191,446.367340 160.750458,450.205170 166.082779,451.350800   C172.639908,452.759583 173.898300,453.862122 174.020447,461.735260   C174.119492,468.120361 176.381088,473.303925 179.780136,478.377197   C181.648056,481.165222 184.054550,482.965393 187.168015,483.984924   C191.097412,485.271637 192.955536,483.749481 192.227875,479.633575   C191.620605,476.198761 190.706696,472.819244 190.041382,469.393341   C189.076355,464.424103 190.526474,459.805695 192.487228,455.358063   C193.863647,452.235901 196.357941,451.221039 199.426819,452.978699   C202.365891,454.662079 204.630341,454.970917 207.240967,452.028442   C209.514343,449.466187 213.363724,449.718811 216.527557,448.864807   C226.226913,446.246613 227.992371,443.248901 224.899857,433.905396   C223.962418,431.073151 223.078857,428.223083 222.052414,425.011261   C213.897476,428.663635 209.564819,437.984894 199.930557,439.134796   C191.324692,440.161987 182.788803,441.743317 173.543274,440.520966   C174.862564,437.237427 176.880844,437.604645 178.531769,437.710388   C188.435287,438.345032 197.845764,435.583008 206.696442,432.029877   C212.806564,429.576904 218.207184,424.719391 219.064972,417.007080   C219.243668,415.400543 219.740433,413.829346 220.281265,411.377594   C222.270355,415.143677 222.852890,418.763031 226.306183,421.723206   C227.876434,415.077820 237.486069,418.445709 238.230682,410.501068   C242.731262,412.861603 241.271561,416.695038 241.030975,419.836273   C240.755798,423.429230 237.556396,422.204956 235.484451,422.175934   C232.437531,422.133270 231.376236,423.477753 231.211060,426.343353   C230.992142,430.141693 231.896698,433.602875 233.622849,436.912964   C237.636627,444.609833 241.969376,452.126373 247.778336,458.622894   C251.295029,462.555786 251.278320,467.143188 249.407928,471.173645   C247.667114,474.924866 246.836151,478.709137 246.483124,482.597321   C246.176865,485.970551 244.407562,487.468079 241.563614,487.874146   C236.200363,488.639923 233.326477,491.724945 232.179001,496.828339   C231.890747,498.110382 231.379242,499.395660 230.715179,500.530121   C228.511627,504.294556 224.529129,504.657013 221.679916,501.319366   C219.628464,498.916229 217.825073,496.302643 215.802719,493.873077   C210.727753,487.776093 208.700821,487.899567 204.133362,494.340485   C202.313126,496.907379 200.563263,499.480438 197.882263,501.391266   C194.431198,503.851013 192.161850,503.396515 190.490738,499.499695   C189.330811,496.794922 187.175659,494.491028 187.641373,491.173096   C188.020050,488.475159 185.733490,487.837982 183.893845,487.275055   C179.026611,485.785675 176.238937,482.781036 175.000046,477.719910   C173.938889,473.384918 171.764297,469.335327 170.370911,465.065308   C168.818253,460.307159 167.803558,455.283417 161.394791,454.794678   C160.848480,454.752991 160.247665,454.096405 159.853836,453.585419   C154.577972,446.740265 150.553421,439.158173 146.361282,431.576904   C149.889404,428.790405 153.498291,429.336945 156.784622,430.155243   C160.286392,431.027130 162.030960,429.896912 162.418594,426.657104   C162.738708,423.981750 163.879395,422.006073 165.824463,420.249481   C168.772552,417.587036 168.072205,414.896790 165.338348,412.639984   C163.817947,411.384827 162.025162,410.368774 160.209824,409.578857   C154.783447,407.217834 150.564240,404.245483 149.622635,397.581879   C149.034103,393.416992 144.556488,391.822937 141.128738,390.551788   C134.265945,388.006775 131.512146,383.682343 132.621689,376.473389   C133.777527,368.963531 128.365753,363.489441 125.983940,357.094818   C124.557762,353.265839 121.592270,350.048492 121.536362,345.614075   C121.508850,343.431915 119.685516,342.551910 117.971550,341.870789   C114.550369,340.511292 113.182770,338.195160 112.416069,334.444519   C111.348122,329.220245 110.692635,325.380188 114.034996,319.925751   C118.589272,312.493561 120.873367,303.378601 120.722878,294.159271   C120.698479,292.664673 120.747963,291.150146 120.963440,289.674042   C121.502968,285.978180 122.957672,284.133301 127.353348,285.236633   C134.164993,286.946350 136.859406,283.628540 134.018417,276.912689   C132.061600,272.286926 129.334854,268.323120 132.557480,262.983521   C135.191284,258.619690 138.658646,255.649887 142.992416,253.307495   C147.042862,251.118256 149.095047,247.619247 148.393600,242.992523   C148.055756,240.764114 148.498215,238.672134 148.690475,236.545700   C149.042206,232.655777 147.007889,231.759277 143.842972,232.539825   C141.107132,233.214569 138.423309,234.188400 135.813477,235.265121   C131.912781,236.874359 130.177231,234.995544 130.427795,231.508057   C130.862732,225.454239 131.037521,219.431854 136.814819,214.992752   C142.142578,210.899063 141.980530,208.118973 136.959152,203.668060   C133.569580,200.663559 132.923538,197.966919 135.566254,194.329926   C136.636002,192.857697 137.343567,191.127899 138.331940,189.589844   C140.916306,185.568268 142.458588,182.206360 137.612762,178.076096   C133.158798,174.279846 136.390717,164.436142 143.505249,162.657410   C152.498108,160.409073 157.701279,153.751648 164.249222,148.593597   C166.523804,146.801849 168.730194,145.212524 171.651108,144.746994   C175.159576,144.187836 176.821152,142.033752 176.762482,138.491196   C176.729370,136.492630 176.959747,134.471283 176.738159,132.497620   C176.027634,126.168900 178.394089,121.421883 183.025711,117.065414   C191.015991,109.549805 189.429291,102.004082 179.416229,97.472557   C174.604218,95.294830 170.960129,91.125755 165.459305,89.918213   C162.942596,89.365746 162.902527,86.066856 164.744583,84.615318   C168.049194,82.011292 171.062073,78.640099 175.913132,78.612587   C181.173203,78.582764 185.793762,76.705620 188.818008,72.244400   C193.010818,66.059326 200.456375,65.611679 206.150085,62.092495   C207.916061,61.000965 210.085846,62.366486 211.348206,64.087997   C215.186325,69.322105 218.978195,74.591858 222.692276,79.914574   C224.954025,83.155907 224.785629,86.661263 223.633194,90.235085   C221.575516,90.274475 221.872086,88.790512 221.575882,87.792519   C219.498047,80.791801 215.948074,74.703186 210.773514,69.495903   C208.895233,67.605751 207.219711,67.036644 204.591492,67.865082   C197.760712,70.018204 190.419250,75.618225 186.045944,82.627022   C188.757782,85.242851 192.192139,86.170921 195.797272,86.695503   C210.537613,88.840408 217.056396,96.245552 217.310944,111.132065   C217.378738,115.096916 217.055740,119.115089 218.645096,122.848740   C225.896103,124.176651 225.937836,124.181931 226.852020,116.957275   C227.518936,111.686829 228.146576,106.408051 228.617142,101.117462   C228.866333,98.316071 229.139145,95.423492 226.532028,92.569344   C230.798782,91.157066 232.897568,92.451424 232.745209,95.935349   C232.360413,104.735168 233.137589,114.164215 230.568726,122.139450   C227.644592,131.217575 230.277313,141.442215 223.846817,149.700058   C221.529404,152.676010 223.636688,156.450851 227.444611,157.499298   C232.364639,158.853973 235.449921,162.008469 237.967331,166.085587   C241.478745,171.772583 245.934280,176.748413 249.944931,182.059372   C252.482971,185.420303 256.170715,185.004074 259.458221,185.501862   C265.868774,186.472565 270.669525,190.377533 275.640533,193.847488   C278.590881,195.906937 278.164825,199.903320 276.111359,201.936554   C268.077057,209.891647 272.600708,218.313812 274.474548,226.686462   C275.194153,229.901764 277.451630,232.840057 276.824707,236.254868   C276.393463,238.603729 275.372467,240.958130 273.210144,242.360016   C272.634735,241.990784 272.132050,241.811386 272.138184,241.651581   C272.422424,234.269363 270.299469,227.319092 268.779602,220.199509   C267.114899,212.401367 268.685577,204.731735 273.947296,197.662170   C267.226776,194.553467 262.113312,189.367569 254.620377,189.300613   C250.840073,189.266846 248.668274,186.173416 245.602249,183.963882   C245.867813,192.022675 252.129959,195.836700 255.929428,201.005844   C258.904236,205.053009 259.539124,208.669525 258.625305,213.484344   C256.017700,227.223236 254.500641,241.092087 255.941757,255.130600   C256.230194,257.940338 256.245361,260.792725 256.182373,263.620911   C256.057739,269.218201 256.012756,274.633698 261.758179,278.058990   C263.431091,279.056366 264.576691,281.105774 264.666260,283.135742   C265.037811,291.555756 271.407745,296.488434 275.553436,302.787994   C281.816132,312.304504 292.017426,311.698303 301.214478,313.460297   C306.323364,314.439087 310.860535,315.524261 313.920563,320.178436   C315.331940,322.325134 317.776245,323.140472 320.276123,323.810394   C330.346161,326.508942 336.739075,334.769440 337.235046,345.273895   C337.644684,353.950287 341.944122,361.163025 346.900757,367.773438   C353.296692,376.303375 363.145172,381.555908 369.316101,390.456207   C371.660156,393.837097 373.246979,397.636414 375.893555,401.029755   C376.755707,392.173767 378.058746,383.347900 374.094116,374.945251   C371.599762,369.658783 369.539368,364.897949 371.413330,358.449371   C373.469727,351.372864 371.037231,343.945526 368.814392,336.935028   C367.576843,333.031952 364.125183,331.417175 360.595001,330.274139   C353.317261,327.917694 346.052124,325.447083 338.633759,323.627075   C333.875397,322.459625 330.105225,320.311859 326.816315,316.770630   C321.022980,310.532806 314.760803,304.868591 307.163055,300.747864   C303.278870,298.641235 300.628662,295.263062 299.517670,290.713440   C296.886993,279.940521 290.322601,272.116638 280.913116,266.456818   C277.779510,264.571960 274.856750,262.336426 271.838806,260.259491   C266.461243,256.558777 266.423096,255.017349 271.866394,249.838882   C273.451630,256.064850 278.502380,259.027893 282.844269,262.919373   C290.673584,269.936493 299.551025,276.230774 303.291809,286.899506   C305.467133,293.103607 308.814484,298.222443 315.274445,301.380707   C322.043335,304.690063 326.716553,310.934998 332.043488,316.181030   C334.142365,318.248016 336.431458,319.294373 339.417480,319.825134   C348.770630,321.487518 357.662689,324.820160 366.392487,328.499451   C370.406219,330.191101 372.266174,333.861328 373.232452,337.844330   C374.524231,343.168793 375.405457,348.592072 376.654694,353.928009   C377.164948,356.107483 376.334045,357.856476 375.559937,359.667786   C373.544067,364.384705 374.062836,368.794769 377.145325,372.842194   C379.586823,376.047974 380.687836,379.587952 380.321136,383.587708   C379.789490,389.386810 381.355896,395.166412 380.332001,400.997070   C379.782837,404.124542 381.669525,406.323639 384.093475,408.108093   C388.911285,411.654785 393.810303,415.087372 395.500122,421.407745   C396.091125,423.618225 397.805176,425.295135 400.352905,424.845642   C403.808258,424.235992 405.557953,426.042633 407.090637,428.696014   C410.805450,435.127014 415.217926,440.854431 422.790527,443.097473   C425.565338,443.919373 426.768188,446.094452 427.179565,448.640656   C428.551392,457.131897 433.730682,464.120361 436.295074,472.135010   C436.803223,473.723236 437.642853,475.534485 439.222534,476.035065   C443.561188,477.409912 444.642487,481.029144 444.867432,484.625732   C445.211517,490.126923 448.523499,491.814087 453.050446,491.888611   C462.907959,492.050903 472.342651,495.360535 482.169159,495.547485   C485.114471,495.603516 486.120728,497.132629 486.587708,499.827362   C487.213531,503.438568 486.444061,506.790375 485.329285,510.100067   C483.391541,515.853210 482.289032,516.270447 476.686920,513.874512   C474.021942,512.734802 471.251007,513.152954 468.970184,514.491882   C463.135376,517.917114 457.515167,517.035339 451.897461,514.262024   C449.649994,513.152527 447.605072,513.226257 445.959564,515.004150   C442.732452,518.490906 439.856567,517.268799 436.871643,514.729309   C431.455933,510.121704 429.794403,510.139557 424.783203,515.125854   C421.353455,518.538635 418.417297,522.253540 417.016510,527.098511   C415.430542,532.583862 410.379883,535.827209 403.854614,535.692749   C401.840698,535.651306 400.247955,535.777527 399.115356,537.569275   C396.813385,541.210815 393.286682,542.699646 389.277039,542.003845   C384.484924,541.172241 381.443298,537.856445 379.779785,533.337341   C379.322388,532.094727 379.178986,530.731628 378.680084,529.510132   C376.252411,523.566223 372.382172,523.037842 368.395752,528.057556   C364.100311,533.466370 351.860107,535.580017 346.092285,531.909058   C342.731812,529.770203 340.063843,522.905090 339.613007,515.002808   C344.628815,513.997009 345.389099,517.427002 345.903442,521.006348   C346.371429,524.263184 345.096588,528.053040 350.289032,529.151489   C357.606689,530.699524 361.668152,530.013977 365.006989,525.373657   C367.364044,522.097839 370.169098,519.344177 374.446014,520.012878   C378.705627,520.679016 381.429840,523.653687 382.917969,527.683228   C383.436646,529.087708 383.840851,530.535767 384.389587,531.927612   C386.251923,536.651428 391.401062,538.281128 395.206451,535.025940   C397.527557,533.040466 400.072205,532.241699 402.891418,531.862061   C410.854248,530.789917 413.872437,527.548828 414.905975,518.446838   C407.150085,517.919678 399.391937,520.738953 390.902130,519.092773   C394.559814,515.225037 398.165039,514.415771 402.391815,515.145264   C410.846832,516.604370 414.826782,513.940491 416.999054,505.628815   C417.913330,502.130493 418.032196,498.312927 421.218018,495.362305  M202.351944,156.758286   C201.259918,159.003479 200.447968,161.445465 199.031006,163.462372   C188.852921,177.949768 186.021088,194.999283 182.804611,211.719452   C181.280548,219.642029 181.685745,227.852112 177.687912,235.327301   C174.398453,241.477951 171.768051,247.977982 168.730881,254.267792   C166.731583,258.408173 166.873169,262.140564 170.876404,264.825714   C177.469727,269.248138 180.979980,275.627319 183.392120,282.918274   C185.279190,288.622101 187.490494,294.292358 191.655243,298.754089   C201.890350,309.719055 213.017181,319.889648 225.159576,328.537231   C236.030838,336.279510 242.433380,345.913483 245.650757,358.566345   C248.941299,371.507019 256.545135,381.229492 269.414307,386.155670   C273.458008,387.703552 277.331207,389.545410 281.120575,391.680756   C289.639923,396.481537 294.058289,394.458496 296.334686,385.087280   C299.732086,371.101288 309.495026,364.263428 323.705902,365.455048   C329.188629,365.914764 334.742157,365.529999 340.398346,365.529999   C340.068573,362.423431 339.084412,360.685669 337.844482,359.114410   C334.606049,355.010559 332.115204,350.953461 332.629059,345.143005   C333.438843,335.987396 327.794495,329.259979 318.813507,327.258850   C314.843933,326.374390 311.179810,325.151520 309.211029,320.981354   C308.058533,318.540192 305.423401,317.852753 302.936829,317.405273   C300.160767,316.905670 297.309326,316.775879 294.565826,316.153778   C287.920532,314.646881 280.486664,315.300323 275.734650,308.658020   C272.644623,304.338867 268.992279,300.421295 265.580597,296.333221   C263.733673,294.120087 262.014709,291.674194 261.955292,288.801178   C261.846039,283.522369 259.151428,280.152191 254.973953,277.483490   C252.516998,275.913879 251.240067,273.532562 251.957275,270.632263   C253.099701,266.012512 252.559555,261.350861 252.688004,256.706665   C253.115021,241.269135 251.371231,225.716446 255.136978,210.458969   C255.673203,208.286331 254.936157,206.369934 253.656403,204.866531   C249.192123,199.622055 246.105774,193.520905 242.544327,187.709152   C240.303406,184.052292 237.384476,181.841965 232.726105,180.965790   C224.898666,179.493530 218.991837,174.464188 214.803223,167.702240   C212.776657,164.430634 212.495148,160.800247 214.171890,157.188248   C215.082489,155.226669 216.009644,153.271881 216.975769,151.337204   C218.072311,149.141373 217.829086,147.161591 216.147156,145.368896   C214.442154,143.551575 212.714493,144.862457 211.086792,145.442184   C206.091492,147.221329 204.921539,152.095169 202.351944,156.758286  M242.243301,477.963226   C241.207199,475.515808 242.665634,473.819366 244.043884,472.133087   C246.076233,469.646637 246.452576,466.745575 244.816376,464.212189   C240.159195,457.001312 235.682846,449.683289 231.518768,441.624420   C230.637558,442.700439 230.151154,443.139282 229.853729,443.681732   C227.086441,448.728607 223.306580,451.578247 217.093048,451.623291   C213.300598,451.650757 209.137192,452.597809 206.706543,456.571320   C205.633545,458.325409 203.742081,458.386383 201.774734,457.856140   C199.912704,457.354370 198.155029,456.058136 195.820465,456.876740   C192.691727,463.542053 193.752502,470.399506 195.351837,477.239685   C196.859512,483.687897 199.028473,490.136353 193.151596,496.338989   C198.211243,496.901642 199.209534,493.562592 200.731339,491.037079   C205.782745,482.654114 212.232971,482.414948 217.742645,490.362305   C219.981430,493.591583 222.198456,496.915649 225.908539,499.102325   C226.437607,498.369537 226.865189,497.886963 227.171066,497.336700   C230.307129,491.695038 232.898270,485.645874 240.011749,483.592773   C242.053299,483.003540 242.960129,480.986481 242.243301,477.963226  M244.307343,391.789917   C246.095398,392.044128 247.133194,393.406036 248.377838,394.493073   C253.501266,398.967499 258.266144,404.001221 263.906494,407.693207   C269.546722,411.385193 274.756989,414.772614 274.404419,422.560028   C280.644836,421.745178 285.380035,420.074280 287.127960,414.321167   C288.477661,409.878754 288.978333,404.525665 285.145966,401.758911   C280.399658,398.332275 276.064972,393.663483 270.165344,392.300354   C263.660522,390.797394 258.372986,387.183502 252.781616,384.006317   C251.482285,383.268005 250.257370,382.281616 248.861938,381.852722   C245.496933,380.818390 242.234741,381.721436 239.503616,383.626038   C237.827286,384.795074 237.535248,387.208130 238.099564,389.130463   C238.864319,391.735687 241.474884,391.341766 244.307343,391.789917  M457.424988,498.259094   C451.098846,497.783661 444.993958,496.627380 439.222015,493.710602   C436.463165,492.316406 433.240417,491.043976 430.264191,491.121124   C427.763550,491.186005 427.899292,495.194244 425.921753,496.765259   C425.534698,497.072754 425.238342,497.491638 424.872528,497.829193   C420.286255,502.061310 419.387390,507.746094 418.149323,514.219666   C422.174713,511.696838 425.039948,508.820740 428.796906,507.478394   C431.290253,506.587616 434.257874,505.310760 436.055817,508.051880   C438.629974,511.976562 441.684113,512.082703 445.476440,510.547729   C447.240021,509.833893 449.057190,510.352722 450.880463,510.485657   C455.820251,510.845795 460.790741,513.075012 465.663483,511.439392   C470.167511,509.927612 474.596710,509.297119 479.288300,510.071686   C480.566162,506.835083 482.414124,504.085388 481.995544,500.545715   C474.461823,502.936188 474.476379,502.895203 466.057343,499.902893   C463.567413,499.017883 461.018311,498.199219 457.424988,498.259094  M431.414520,469.984955   C429.639709,465.503632 427.928833,460.995605 426.073608,456.547821   C423.861816,451.245331 421.156555,446.545044 415.206940,444.279724   C410.543274,442.503998 407.542511,438.600830 405.643768,433.945984   C404.678650,431.580017 403.564270,429.089203 400.448700,429.429504   C395.658783,429.952667 393.504211,427.102600 391.900055,423.340179   C389.768433,418.340759 386.334595,414.447113 381.271912,410.684509   C381.519562,415.812897 382.998383,419.598816 386.581329,421.992004   C389.852936,424.177216 392.448486,426.874603 394.679077,429.977905   C397.034790,433.255310 399.763977,436.043549 403.054688,438.430328   C407.202576,441.438843 410.003540,445.264343 410.562439,450.783936   C411.234222,457.418060 412.686523,463.922638 418.204163,468.682404   C419.682831,469.958008 420.158173,472.074829 420.383575,474.136902   C420.927429,479.112274 423.291687,482.350708 428.607025,483.303284   C431.157471,483.760376 433.519196,485.246643 435.980896,486.230560   C437.600647,486.877899 439.094910,488.354553 441.181305,487.057617   C442.081329,484.413483 441.415314,481.484131 439.106445,480.629425   C434.211792,478.817535 433.336700,474.607971 431.414520,469.984955  M211.135040,119.261261   C210.984802,116.676994 210.834579,114.092728 210.634064,110.643669   C204.845245,114.518532 199.441437,116.077255 193.637161,111.103279   C192.464966,118.184669 190.700073,124.021675 187.761520,129.461166   C187.400116,130.130127 187.373260,131.100067 187.489273,131.886581   C188.097336,136.008606 196.501328,141.921310 201.394012,141.741547   C207.552139,141.515289 211.454422,137.569168 211.600677,131.102020   C211.683121,127.456253 211.372574,123.801598 211.135040,119.261261  M182.866745,147.359451   C185.113571,152.065521 185.699905,157.142960 185.621918,162.222717   C185.583191,164.745071 186.176559,166.280869 188.312134,167.317276   C192.421631,163.186508 198.988281,150.929230 199.754395,146.117569   C195.694183,142.422241 189.808884,141.461853 186.282257,136.978470   C182.258972,131.863724 185.541656,126.700478 186.604813,121.111954   C178.486679,128.294342 183.088409,138.328094 178.912460,146.005829   C180.426773,146.431137 181.377045,146.698044 182.866745,147.359451  M206.646805,97.879852   C200.822525,92.279564 193.386215,92.315392 186.193192,91.368492   C185.623947,93.423721 186.769058,94.469856 186.978531,95.706665   C187.815262,100.647240 193.064026,101.951141 195.131439,105.897308   C197.795349,110.981987 201.198563,112.050148 205.512360,109.489883   C210.402740,106.587425 210.793152,103.857452 206.646805,97.879852  M187.090393,170.965790   C183.454559,168.470306 182.153671,165.044693 182.622391,160.683975   C182.929657,157.825439 182.363556,155.022095 180.720932,152.075577   C176.643829,158.977875 173.631210,165.255325 176.988953,173.160873   C178.822189,177.477066 179.628967,182.367798 178.425613,187.334366   C177.984970,189.153030 177.631653,191.592346 180.204941,193.308044   C183.183151,186.024231 185.190979,178.844147 187.090393,170.965790  M237.929321,175.263092   C237.122772,173.631226 236.185608,172.049683 235.533951,170.358139   C233.495056,165.065613 230.549438,161.122833 224.136612,161.053726   C221.897202,161.029587 220.308807,159.267914 219.324188,156.413086   C218.460373,160.156891 216.629959,162.814240 217.727280,165.939850   C219.667267,171.465637 229.639557,178.139450 235.466660,177.838364   C236.773880,177.770813 238.287369,177.992630 237.929321,175.263092  M224.044342,134.910004   C224.627960,132.938187 223.698593,132.849045 222.329666,133.628891   C217.409470,136.431839 214.084808,139.484421 221.381393,147.689865   C222.925613,143.656021 223.136429,139.540817 224.044342,134.910004  z"/>
</svg>