<svg version="1.1" id="Layer_1" xmlns="http://www.w3.org/2000/svg" xmlns:xlink="http://www.w3.org/1999/xlink" x="0px" y="0px"
	 width="100%" viewBox="0 0 1130 408" enable-background="new 0 0 1130 408" xml:space="preserve">
<path fill="#080C27" opacity="1.000000" stroke="none" 
	d="
M704.000000,409.000000 
	C469.333344,409.000000 235.166672,409.000000 1.000000,409.000000 
	C1.000000,273.000000 1.000000,137.000000 1.000000,1.000000 
	C377.666656,1.000000 754.333313,1.000000 1131.000000,1.000000 
	C1131.000000,137.000000 1131.000000,273.000000 1131.000000,409.000000 
	C988.833313,409.000000 846.666687,409.000000 704.000000,409.000000 
M107.630875,297.164520 
	C119.757912,297.164520 131.884949,297.164520 144.219193,297.164520 
	C155.346146,251.265045 166.381683,205.742661 177.417221,160.220261 
	C183.431122,179.914948 188.198746,199.467499 192.938354,219.026840 
	C198.989349,243.998062 204.989304,268.981781 211.140610,293.928192 
	C211.445221,295.163513 212.969070,297.014374 213.948486,297.029114 
	C227.565231,297.233856 241.186035,297.167694 254.992340,297.167694 
	C270.388397,227.467361 285.686737,158.209320 301.089294,88.479424 
	C287.311493,88.479424 274.012970,88.399071 260.720062,88.634628 
	C259.676178,88.653122 258.010284,90.744476 257.747803,92.089867 
	C254.055374,111.015205 250.570328,129.980896 247.007355,148.931610 
	C241.595490,177.716232 236.162125,206.496826 230.737900,235.279129 
	C230.509720,235.287872 230.281555,235.296631 230.053375,235.305389 
	C218.851608,186.555222 207.649826,137.805038 196.381699,88.766098 
	C184.304688,88.766098 172.242493,88.766098 159.994461,88.766098 
	C148.700165,137.603760 137.459763,186.208313 126.219368,234.812866 
	C125.950386,234.756607 125.681404,234.700348 125.412422,234.644073 
	C116.177338,185.974564 106.942261,137.305054 97.730751,88.759796 
	C83.284927,88.759796 69.377579,88.759796 55.061306,88.759796 
	C70.454742,158.464920 85.763046,227.784531 101.084709,297.164642 
	C103.363808,297.164642 105.019447,297.164642 107.630875,297.164520 
M680.830261,250.499924 
	C680.830261,265.937592 680.830261,281.375275 680.830261,296.957428 
	C694.750183,296.957428 708.159424,296.957428 721.642578,296.957428 
	C721.788269,296.304810 721.981018,295.844086 721.981079,295.383362 
	C721.984192,262.062653 722.101990,228.741104 721.891846,195.421646 
	C721.815979,183.391083 719.675049,171.676804 713.825256,160.896988 
	C700.806458,136.906158 667.678284,135.401260 650.907715,143.253830 
	C643.343994,146.795441 636.686584,152.272507 629.658142,156.845322 
	C629.658142,134.673721 629.658142,111.768921 629.658142,88.902634 
	C615.723145,88.902634 602.188660,88.902634 588.681641,88.902634 
	C588.681641,158.452164 588.681641,227.552017 588.681641,296.844055 
	C602.444092,296.844055 615.980103,296.844055 629.830444,296.844055 
	C629.830444,294.882843 629.830322,293.240784 629.830444,291.598724 
	C629.832703,258.111115 629.821655,224.623505 629.871826,191.135971 
	C629.874695,189.200287 629.806335,186.919586 630.737305,185.385880 
	C637.024658,175.027710 652.430908,170.121185 665.687439,173.991486 
	C675.817444,176.948975 680.829895,185.232513 680.830200,199.018570 
	C680.830627,215.845688 680.830261,232.672791 680.830261,250.499924 
M1009.581665,261.185364 
	C999.733948,266.621918 989.188416,267.871368 978.271606,265.991302 
	C962.352722,263.249786 948.831787,247.974213 949.259216,232.976257 
	C981.771179,232.976257 1014.302002,232.976257 1047.451172,232.976257 
	C1046.943481,221.808304 1046.490479,211.197113 1045.950195,200.590363 
	C1045.858398,198.788391 1045.407837,197.002686 1045.095459,195.214294 
	C1038.822754,159.310059 1014.047119,138.367203 977.892700,139.264099 
	C949.309143,139.973190 927.766174,152.698105 915.229919,178.971970 
	C907.192566,195.816818 905.596008,213.919388 907.082092,232.145248 
	C909.256104,258.808228 921.823242,279.377167 945.990967,291.711700 
	C967.768005,302.826111 990.460815,302.642120 1013.201294,294.833679 
	C1025.669434,290.552399 1036.009033,283.119507 1043.562256,271.978271 
	C1036.833252,264.430206 1030.328613,257.133728 1023.946655,249.974930 
	C1019.265564,253.718399 1014.767456,257.315582 1009.581665,261.185364 
M488.669434,140.120773 
	C474.370911,142.611771 461.785492,148.431931 451.751221,159.174896 
	C437.280182,174.667984 437.670410,199.894363 452.632294,214.647339 
	C462.927887,224.799164 476.085632,229.191025 489.562622,233.008804 
	C499.265747,235.757507 508.928131,238.666153 518.531433,241.744614 
	C524.153625,243.546921 527.198059,247.916016 527.701416,253.615097 
	C528.192200,259.172150 525.726990,263.626495 520.892944,266.576080 
	C502.665619,277.697906 480.132385,268.743317 475.045898,248.197464 
	C462.325775,248.197464 449.556122,248.197464 436.791046,248.197464 
	C436.199707,264.590912 446.579620,281.450409 463.120697,290.171021 
	C487.748199,303.154816 513.139160,303.553986 538.573364,293.023834 
	C546.921082,289.567780 554.585083,284.672668 560.285828,276.900146 
	C572.488403,260.262817 569.805603,232.770432 552.327148,220.175308 
	C544.205505,214.322815 535.306519,210.736496 525.878601,208.032150 
	C513.783569,204.562775 501.638184,201.261154 489.599121,197.608368 
	C484.391937,196.028458 481.546906,191.975876 481.016022,186.600540 
	C480.447174,180.840515 482.613464,176.034225 487.465515,172.894562 
	C495.236267,167.866226 503.800964,167.568039 512.397461,170.094498 
	C521.600403,172.799210 525.676514,179.784363 526.335510,188.810974 
	C540.295898,188.810974 553.859436,188.810974 567.406982,188.810974 
	C566.950989,169.185272 557.222717,156.103409 540.508728,147.445343 
	C524.332275,139.065735 507.193939,137.877136 488.669434,140.120773 
M421.835358,215.500076 
	C421.835358,173.260315 421.835358,131.020569 421.835358,88.769440 
	C407.743896,88.769440 394.330688,88.769440 380.709167,88.769440 
	C380.709167,158.315521 380.709167,227.541534 380.709167,296.799225 
	C394.515045,296.799225 408.058044,296.799225 421.835358,296.799225 
	C421.835358,269.778290 421.835358,243.139191 421.835358,215.500076 
M899.532410,169.462051 
	C899.532410,160.034653 899.532410,150.607269 899.532410,140.986069 
	C879.843872,135.965881 864.417175,142.140869 852.652405,159.789963 
	C852.253418,153.313278 851.920105,147.902374 851.572571,142.260925 
	C838.492554,142.260925 825.746460,142.260925 812.781982,142.260925 
	C812.781982,193.846558 812.781982,245.349930 812.781982,296.935150 
	C826.534607,296.935150 839.957458,296.935150 853.833069,296.935150 
	C853.833069,294.908356 853.833008,293.119110 853.833130,291.329865 
	C853.834167,260.860474 853.769714,230.390701 853.947327,199.922333 
	C853.963379,197.162247 854.990723,194.062195 856.486572,191.718933 
	C861.800964,183.394180 870.314575,180.671021 879.553040,180.081787 
	C886.091125,179.664810 892.677246,180.001038 899.526611,180.001038 
	C899.526611,177.070862 899.526611,173.760468 899.532410,169.462051 
M353.184631,161.009445 
	C339.931732,161.009445 326.678833,161.009445 313.413208,161.009445 
	C313.413208,206.687576 313.413208,251.742371 313.413208,296.924866 
	C327.245239,296.924866 340.816986,296.924866 354.649597,296.924866 
	C354.721436,295.904449 354.826324,295.108551 354.826477,294.312622 
	C354.834595,251.012100 354.839172,207.711578 354.804382,164.411087 
	C354.803528,163.327515 354.358734,162.244308 353.184631,161.009445 
M787.836304,176.504517 
	C787.836304,171.408600 787.836304,166.312683 787.836304,161.288818 
	C773.623840,161.288818 760.050354,161.288818 746.395142,161.288818 
	C746.395142,206.628220 746.395142,251.671570 746.395142,296.762329 
	C760.312256,296.762329 773.985413,296.762329 787.836304,296.762329 
	C787.836304,256.731659 787.836304,217.117142 787.836304,176.504517 
M356.192474,109.500153 
	C356.192474,102.594269 356.192474,95.688377 356.192474,88.902237 
	C341.425934,88.902237 327.388062,88.902237 313.376556,88.902237 
	C313.376556,103.279732 313.376556,117.201500 313.376556,131.243622 
	C327.687897,131.243622 341.759491,131.243622 356.192474,131.243622 
	C356.192474,124.117302 356.192474,117.308640 356.192474,109.500153 
M742.238220,113.767464 
	C740.533936,115.081490 738.829590,116.395523 737.994263,117.039551 
	C748.724243,127.876953 758.732239,137.985184 768.193115,147.540756 
	C777.988159,138.161179 788.083496,128.494034 798.347473,118.665428 
	C787.984619,108.485168 777.936768,98.614311 767.469177,88.331139 
	C759.359680,96.512566 751.054077,104.891869 742.238220,113.767464 
z"/>
<path fill="#FCFDFD" opacity="1.000000" stroke="none" 
	d="
M107.152985,297.164581 
	C105.019447,297.164642 103.363808,297.164642 101.084709,297.164642 
	C85.763046,227.784531 70.454742,158.464920 55.061306,88.759796 
	C69.377579,88.759796 83.284927,88.759796 97.730751,88.759796 
	C106.942261,137.305054 116.177338,185.974564 125.412422,234.644073 
	C125.681404,234.700348 125.950386,234.756607 126.219368,234.812866 
	C137.459763,186.208313 148.700165,137.603760 159.994461,88.766098 
	C172.242493,88.766098 184.304688,88.766098 196.381699,88.766098 
	C207.649826,137.805038 218.851608,186.555222 230.053375,235.305389 
	C230.281555,235.296631 230.509720,235.287872 230.737900,235.279129 
	C236.162125,206.496826 241.595490,177.716232 247.007355,148.931610 
	C250.570328,129.980896 254.055374,111.015205 257.747803,92.089867 
	C258.010284,90.744476 259.676178,88.653122 260.720062,88.634628 
	C274.012970,88.399071 287.311493,88.479424 301.089294,88.479424 
	C285.686737,158.209320 270.388397,227.467361 254.992340,297.167694 
	C241.186035,297.167694 227.565231,297.233856 213.948486,297.029114 
	C212.969070,297.014374 211.445221,295.163513 211.140610,293.928192 
	C204.989304,268.981781 198.989349,243.998062 192.938354,219.026840 
	C188.198746,199.467499 183.431122,179.914948 177.417221,160.220261 
	C166.381683,205.742661 155.346146,251.265045 144.219193,297.164520 
	C131.884949,297.164520 119.757912,297.164520 107.152985,297.164581 
z"/>
<path fill="#FCFCFC" opacity="1.000000" stroke="none" 
	d="
M680.830261,249.999908 
	C680.830261,232.672791 680.830627,215.845688 680.830200,199.018570 
	C680.829895,185.232513 675.817444,176.948975 665.687439,173.991486 
	C652.430908,170.121185 637.024658,175.027710 630.737305,185.385880 
	C629.806335,186.919586 629.874695,189.200287 629.871826,191.135971 
	C629.821655,224.623505 629.832703,258.111115 629.830444,291.598724 
	C629.830322,293.240784 629.830444,294.882843 629.830444,296.844055 
	C615.980103,296.844055 602.444092,296.844055 588.681641,296.844055 
	C588.681641,227.552017 588.681641,158.452164 588.681641,88.902634 
	C602.188660,88.902634 615.723145,88.902634 629.658142,88.902634 
	C629.658142,111.768921 629.658142,134.673721 629.658142,156.845322 
	C636.686584,152.272507 643.343994,146.795441 650.907715,143.253830 
	C667.678284,135.401260 700.806458,136.906158 713.825256,160.896988 
	C719.675049,171.676804 721.815979,183.391083 721.891846,195.421646 
	C722.101990,228.741104 721.984192,262.062653 721.981079,295.383362 
	C721.981018,295.844086 721.788269,296.304810 721.642578,296.957428 
	C708.159424,296.957428 694.750183,296.957428 680.830261,296.957428 
	C680.830261,281.375275 680.830261,265.937592 680.830261,249.999908 
z"/>
<path fill="#FDFDFD" opacity="1.000000" stroke="none" 
	d="
M1009.925537,261.049072 
	C1014.767456,257.315582 1019.265564,253.718399 1023.946655,249.974930 
	C1030.328613,257.133728 1036.833252,264.430206 1043.562256,271.978271 
	C1036.009033,283.119507 1025.669434,290.552399 1013.201294,294.833679 
	C990.460815,302.642120 967.768005,302.826111 945.990967,291.711700 
	C921.823242,279.377167 909.256104,258.808228 907.082092,232.145248 
	C905.596008,213.919388 907.192566,195.816818 915.229919,178.971970 
	C927.766174,152.698105 949.309143,139.973190 977.892700,139.264099 
	C1014.047119,138.367203 1038.822754,159.310059 1045.095459,195.214294 
	C1045.407837,197.002686 1045.858398,198.788391 1045.950195,200.590363 
	C1046.490479,211.197113 1046.943481,221.808304 1047.451172,232.976257 
	C1014.302002,232.976257 981.771179,232.976257 949.259216,232.976257 
	C948.831787,247.974213 962.352722,263.249786 978.271606,265.991302 
	C989.188416,267.871368 999.733948,266.621918 1009.925537,261.049072 
M967.500732,205.003174 
	C980.412964,205.003174 993.325256,205.003174 1006.204102,205.003174 
	C1006.991028,185.295227 997.409790,173.147446 981.337646,172.841400 
	C962.735413,172.487198 949.554016,185.745880 949.576050,205.003174 
	C955.216614,205.003174 960.859009,205.003174 967.500732,205.003174 
z"/>
<path fill="#FCFCFD" opacity="1.000000" stroke="none" 
	d="
M489.099426,140.045563 
	C507.193939,137.877136 524.332275,139.065735 540.508728,147.445343 
	C557.222717,156.103409 566.950989,169.185272 567.406982,188.810974 
	C553.859436,188.810974 540.295898,188.810974 526.335510,188.810974 
	C525.676514,179.784363 521.600403,172.799210 512.397461,170.094498 
	C503.800964,167.568039 495.236267,167.866226 487.465515,172.894562 
	C482.613464,176.034225 480.447174,180.840515 481.016022,186.600540 
	C481.546906,191.975876 484.391937,196.028458 489.599121,197.608368 
	C501.638184,201.261154 513.783569,204.562775 525.878601,208.032150 
	C535.306519,210.736496 544.205505,214.322815 552.327148,220.175308 
	C569.805603,232.770432 572.488403,260.262817 560.285828,276.900146 
	C554.585083,284.672668 546.921082,289.567780 538.573364,293.023834 
	C513.139160,303.553986 487.748199,303.154816 463.120697,290.171021 
	C446.579620,281.450409 436.199707,264.590912 436.791046,248.197464 
	C449.556122,248.197464 462.325775,248.197464 475.045898,248.197464 
	C480.132385,268.743317 502.665619,277.697906 520.892944,266.576080 
	C525.726990,263.626495 528.192200,259.172150 527.701416,253.615097 
	C527.198059,247.916016 524.153625,243.546921 518.531433,241.744614 
	C508.928131,238.666153 499.265747,235.757507 489.562622,233.008804 
	C476.085632,229.191025 462.927887,224.799164 452.632294,214.647339 
	C437.670410,199.894363 437.280182,174.667984 451.751221,159.174896 
	C461.785492,148.431931 474.370911,142.611771 489.099426,140.045563 
z"/>
<path fill="#FAFAFA" opacity="1.000000" stroke="none" 
	d="
M421.835358,216.000092 
	C421.835358,243.139191 421.835358,269.778290 421.835358,296.799225 
	C408.058044,296.799225 394.515045,296.799225 380.709167,296.799225 
	C380.709167,227.541534 380.709167,158.315521 380.709167,88.769440 
	C394.330688,88.769440 407.743896,88.769440 421.835358,88.769440 
	C421.835358,131.020569 421.835358,173.260315 421.835358,216.000092 
z"/>
<path fill="#FBFBFB" opacity="1.000000" stroke="none" 
	d="
M899.529541,169.956055 
	C899.526611,173.760468 899.526611,177.070862 899.526611,180.001038 
	C892.677246,180.001038 886.091125,179.664810 879.553040,180.081787 
	C870.314575,180.671021 861.800964,183.394180 856.486572,191.718933 
	C854.990723,194.062195 853.963379,197.162247 853.947327,199.922333 
	C853.769714,230.390701 853.834167,260.860474 853.833130,291.329865 
	C853.833008,293.119110 853.833069,294.908356 853.833069,296.935150 
	C839.957458,296.935150 826.534607,296.935150 812.781982,296.935150 
	C812.781982,245.349930 812.781982,193.846558 812.781982,142.260925 
	C825.746460,142.260925 838.492554,142.260925 851.572571,142.260925 
	C851.920105,147.902374 852.253418,153.313278 852.652405,159.789963 
	C864.417175,142.140869 879.843872,135.965881 899.532410,140.986069 
	C899.532410,150.607269 899.532410,160.034653 899.529541,169.956055 
z"/>
<path fill="#FCFCFC" opacity="1.000000" stroke="none" 
	d="
M353.652832,161.085205 
	C354.358734,162.244308 354.803528,163.327515 354.804382,164.411087 
	C354.839172,207.711578 354.834595,251.012100 354.826477,294.312622 
	C354.826324,295.108551 354.721436,295.904449 354.649597,296.924866 
	C340.816986,296.924866 327.245239,296.924866 313.413208,296.924866 
	C313.413208,251.742371 313.413208,206.687576 313.413208,161.009445 
	C326.678833,161.009445 339.931732,161.009445 353.652832,161.085205 
z"/>
<path fill="#FCFCFC" opacity="1.000000" stroke="none" 
	d="
M787.836304,177.003571 
	C787.836304,217.117142 787.836304,256.731659 787.836304,296.762329 
	C773.985413,296.762329 760.312256,296.762329 746.395142,296.762329 
	C746.395142,251.671570 746.395142,206.628220 746.395142,161.288818 
	C760.050354,161.288818 773.623840,161.288818 787.836304,161.288818 
	C787.836304,166.312683 787.836304,171.408600 787.836304,177.003571 
z"/>
<path fill="#F8F9F9" opacity="1.000000" stroke="none" 
	d="
M356.192474,110.000061 
	C356.192474,117.308640 356.192474,124.117302 356.192474,131.243622 
	C341.759491,131.243622 327.687897,131.243622 313.376556,131.243622 
	C313.376556,117.201500 313.376556,103.279732 313.376556,88.902237 
	C327.388062,88.902237 341.425934,88.902237 356.192474,88.902237 
	C356.192474,95.688377 356.192474,102.594269 356.192474,110.000061 
z"/>
<path fill="#FBFBFB" opacity="1.000000" stroke="none" 
	d="
M742.493286,113.519318 
	C751.054077,104.891869 759.359680,96.512566 767.469177,88.331139 
	C777.936768,98.614311 787.984619,108.485168 798.347473,118.665428 
	C788.083496,128.494034 777.988159,138.161179 768.193115,147.540756 
	C758.732239,137.985184 748.724243,127.876953 737.994263,117.039551 
	C738.829590,116.395523 740.533936,115.081490 742.493286,113.519318 
z"/>
<path fill="#0A0E27" opacity="1.000000" stroke="none" 
	d="
M967.001099,205.003174 
	C960.859009,205.003174 955.216614,205.003174 949.576050,205.003174 
	C949.554016,185.745880 962.735413,172.487198 981.337646,172.841400 
	C997.409790,173.147446 1006.991028,185.295227 1006.204102,205.003174 
	C993.325256,205.003174 980.412964,205.003174 967.001099,205.003174 
z"/>
</svg>